<?xml version="1.0" standalone="no"?>
<!DOCTYPE svg PUBLIC "-//W3C//DTD SVG 20010904//EN"
 "http://www.w3.org/TR/2001/REC-SVG-20010904/DTD/svg10.dtd">
<svg version="1.0" xmlns="http://www.w3.org/2000/svg"
 width="700.000000pt" height="700.000000pt" viewBox="0 0 700.000000 700.000000"
 preserveAspectRatio="xMidYMid meet">
<metadata>
Created by potrace 1.11, written by Peter Selinger 2001-2013
</metadata>
<g transform="translate(0.000000,700.000000) scale(0.100000,-0.100000)"
fill="#000000" stroke="none">
<path d="M1717 6124 c-1 -1 -24 -4 -52 -8 -195 -23 -373 -162 -454 -355 -27
-64 -30 -76 -39 -166 -5 -52 -8 -4686 -3 -4715 1 -3 657 -5 1458 -5 l1457 0 0
1093 0 1092 30 1 c168 4 390 3 397 -1 4 -3 10 -359 12 -790 2 -432 6 -795 10
-808 3 -13 9 -33 12 -45 14 -52 61 -156 92 -205 102 -161 281 -284 470 -321
402 -79 785 183 862 589 13 72 14 2931 0 3013 -21 126 -76 244 -166 355 -34
42 -299 314 -590 605 l-528 527 -155 -155 -155 -155 308 -308 308 -308 -48
-23 c-209 -100 -343 -266 -404 -501 -15 -60 -19 -214 -7 -281 49 -270 256
-501 513 -572 162 -44 270 -40 473 19 17 5 22 2 22 -12 0 -11 1 -493 1 -1073
0 -785 -3 -1063 -12 -1090 -41 -125 -158 -210 -284 -206 -131 4 -241 90 -275
215 -8 30 -12 249 -12 744 -1 538 -4 716 -14 765 -35 169 -161 328 -317 401
-115 53 -146 58 -382 59 l-161 1 1 1018 c0 559 -4 1051 -8 1091 -26 231 -183
418 -412 491 l-70 23 -938 1 c-516 1 -939 1 -940 0z m1736 -584 l47 0 0 -728
0 -728 -875 0 -875 0 0 728 0 727 48 3 c35 2 1277 1 1655 -2z m1871 -885 c46
-9 114 -53 151 -96 40 -48 57 -98 61 -174 12 -255 -287 -394 -481 -224 -140
123 -118 361 43 461 68 42 132 51 226 33z"/>
</g>
</svg>
